<?xml version="1.0" standalone="no"?><!DOCTYPE svg PUBLIC "-//W3C//DTD SVG 1.1//EN" "http://www.w3.org/Graphics/SVG/1.1/DTD/svg11.dtd"><svg t="1629426667809" class="icon" viewBox="0 0 1024 1024" version="1.1" xmlns="http://www.w3.org/2000/svg" p-id="8621" xmlns:xlink="http://www.w3.org/1999/xlink" width="200" height="200"><defs><style type="text/css"></style></defs><path d="M841.386667 429.056h-72.704V259.072c0-142.336-115.370667-258.389333-257.024-258.389333-141.994667 0-257.365333 115.712-257.365334 258.389333v169.984H181.589333c-35.157333 0-63.488 28.672-63.488 63.829333v465.578667c0 35.157333 28.330667 63.829333 63.488 63.829333h660.138667c35.157333 0 63.488-28.672 63.488-63.829333V492.885333c-0.341333-35.157333-28.672-63.829333-63.829333-63.829333z m-294.229334 308.906667V839.68c0 4.778667-3.754667 8.192-8.192 8.533333h-54.613333c-4.778667 0-8.192-3.754667-8.533333-8.533333v-101.717333c-25.6-13.312-43.349333-39.594667-43.349334-70.656 0-43.690667 35.498667-79.530667 79.189334-79.530667 43.690667 0 79.189333 35.498667 79.189333 79.530667-0.341333 31.061333-18.090667 57.344-43.690667 70.656z m122.88-308.906667h-316.757333V263.168c0-87.722667 70.997333-159.061333 158.378667-159.061333 87.381333 0 158.378667 71.338667 158.378666 159.061333v165.888z m0 0" p-id="8622"></path></svg>