<?xml version="1.0" standalone="no"?><!DOCTYPE svg PUBLIC "-//W3C//DTD SVG 1.1//EN" "http://www.w3.org/Graphics/SVG/1.1/DTD/svg11.dtd"><svg t="1629427241389" class="icon" viewBox="0 0 1536 1024" version="1.1" xmlns="http://www.w3.org/2000/svg" p-id="42422" xmlns:xlink="http://www.w3.org/1999/xlink" width="300" height="200"><defs><style type="text/css"></style></defs><path d="M768 0C260.5056 0 0 479.9488 0 479.9488s196.608 480.0512 768 480.0512c517.4272 0 768-478.208 768-478.208S1283.4816 0 768 0z m0 768c-167.1168 0-288.0512-125.952-288.0512-288.0512 0-161.9968 120.832-287.9488 288.0512-287.9488 167.1168 0 288.0512 125.952 288.0512 287.9488C1056.0512 642.048 935.2192 768 768 768z m0-480.0512a194.1504 194.1504 0 0 0-192 192.1024c0 102.7072 85.8112 192 192 192s192-89.2928 192-192c0-102.912-85.8112-192.2048-192-192z" p-id="42423"></path></svg>