<?xml version="1.0" standalone="no"?><!DOCTYPE svg PUBLIC "-//W3C//DTD SVG 1.1//EN" "http://www.w3.org/Graphics/SVG/1.1/DTD/svg11.dtd"><svg t="1629425694808" class="icon" viewBox="0 0 2194 1024" version="1.1" xmlns="http://www.w3.org/2000/svg" p-id="12315" xmlns:xlink="http://www.w3.org/1999/xlink" width="428.515625" height="200"><defs><style type="text/css"></style></defs><path d="M1844.955429 263.460571A1172.187429 1172.187429 0 0 0 2052.973714 0h-173.348571a1022.683429 1022.683429 0 0 1-840.411429 438.857143 1023.122286 1023.122286 0 0 1-840.557714-438.857143H25.453714a1175.698286 1175.698286 0 0 0 207.872 263.460571L0 496.786286l103.570286 103.424 242.249143-242.395429c103.862857 76.507429 221.037714 136.338286 347.282285 175.396572l-90.258285 324.900571 141.019428 39.204571 91.574857-329.874285a1181.988571 1181.988571 0 0 0 407.405715 0.146285l91.574857 329.728 141.019428-39.204571-90.258285-324.900571a1166.189714 1166.189714 0 0 0 347.282285-175.542858L1974.857143 600.210286l103.570286-103.424-233.325715-233.325715h-0.146285z" p-id="12316"></path></svg>