<?xml version="1.0" standalone="no"?><!DOCTYPE svg PUBLIC "-//W3C//DTD SVG 1.1//EN" "http://www.w3.org/Graphics/SVG/1.1/DTD/svg11.dtd"><svg t="1629426663533" class="icon" viewBox="0 0 1024 1024" version="1.1" xmlns="http://www.w3.org/2000/svg" p-id="8490" xmlns:xlink="http://www.w3.org/1999/xlink" width="200" height="200"><defs><style type="text/css"></style></defs><path d="M59.392 433.834667h620.202667c33.109333 0 59.392 27.306667 59.392 61.098666v448.853334c0 34.133333-26.282667 61.098667-59.392 61.098666H59.392c-33.109333 0-59.392-27.306667-59.392-61.098666V495.274667c0-34.133333 26.282667-61.44 59.392-61.44z m277.162667 299.349333v95.232c0 6.826667 6.485333 6.826667 6.485333 6.826667H395.946667c6.485333 0 6.485333-6.826667 6.485333-6.826667v-95.232c26.282667-13.653333 39.594667-40.96 39.594667-67.925333 0-40.96-33.109333-74.752-72.704-74.752-39.594667 0-72.704 34.133333-72.704 74.752 0.341333 34.133333 13.312 54.613333 39.936 67.925333z m0 0" p-id="8491"></path><path d="M921.6 276.48c0-81.578667-67.925333-156.330667-156.330667-156.330667-81.578667 0-156.330667 67.925333-156.330666 156.330667v163.157333h-88.405334V269.994667c0-136.192 108.885333-251.562667 251.562667-251.562667 136.192 0 251.562667 108.885333 251.562667 251.562667v163.157333H928.426667L921.6 276.48z m0 0" p-id="8492"></path></svg>