<?xml version="1.0" standalone="no"?><!DOCTYPE svg PUBLIC "-//W3C//DTD SVG 1.1//EN" "http://www.w3.org/Graphics/SVG/1.1/DTD/svg11.dtd"><svg t="1623891956391" class="icon" viewBox="0 0 1024 1024" version="1.1" xmlns="http://www.w3.org/2000/svg" p-id="83856" xmlns:xlink="http://www.w3.org/1999/xlink" width="200" height="200"><defs><style type="text/css"></style></defs><path d="M600.224 378.496L818.752 160H704a32 32 0 0 1 0-64h192a31.904 31.904 0 0 1 32 32v192a32 32 0 0 1-64 0V205.248l-218.496 218.528a160.864 160.864 0 0 0-45.28-45.28z m45.28 221.76L864 818.72V704a32 32 0 0 1 64 0v192a31.904 31.904 0 0 1-32 32h-192a32 32 0 0 1 0-64h114.752l-218.528-218.496a160.864 160.864 0 0 0 45.28-45.28z m-221.76 45.248L205.28 864H320a32 32 0 0 1 0 64H128a31.904 31.904 0 0 1-32-32v-192a32 32 0 0 1 64 0v114.752l218.496-218.528a160.864 160.864 0 0 0 45.28 45.28z m-45.248-221.76L160 205.28V320a32 32 0 0 1-64 0V128a31.904 31.904 0 0 1 32-32h192a32 32 0 0 1 0 64H205.248l218.528 218.496a160.864 160.864 0 0 0-45.28 45.28z" p-id="83857"></path></svg>
