<?xml version="1.0" standalone="no"?><!DOCTYPE svg PUBLIC "-//W3C//DTD SVG 1.1//EN" "http://www.w3.org/Graphics/SVG/1.1/DTD/svg11.dtd"><svg t="1623890168839" class="icon" viewBox="0 0 1024 1024" version="1.1" xmlns="http://www.w3.org/2000/svg" p-id="68693" xmlns:xlink="http://www.w3.org/1999/xlink" width="200" height="200"><defs><style type="text/css"></style></defs><path d="M512 989.867C248.107 989.867 34.133 775.893 34.133 512S248.107 34.133 512 34.133 989.867 248.107 989.867 512 775.893 989.867 512 989.867z m0-63.68c228.693 0 414.187-185.387 414.187-414.187S740.693 97.813 512 97.813 97.813 283.307 97.813 512 283.307 926.187 512 926.187z" p-id="68694"></path><path d="M524.373 278.4c43.52 0 78.827 11.52 106.027 36.053 27.2 23.787 40.747 56.427 40.747 97.174 0 33.28-8.854 61.12-25.814 82.88-6.08 7.466-25.173 25.173-57.066 53.013-12.907 10.88-22.4 23.147-28.587 35.307-7.467 13.546-10.88 28.586-10.88 44.906v11.52h-72.747v-11.52c0-25.173 4.054-46.933 13.547-64.533 8.853-18.987 34.667-46.933 76.8-84.267l11.52-12.906c12.267-15.68 18.987-31.894 18.987-49.6 0-23.787-6.827-42.134-19.734-55.68-13.546-13.547-33.28-20.374-57.813-20.374-30.613 0-53.013 9.494-66.56 29.227-12.267 16.32-18.347 39.467-18.347 69.333h-71.36c0-49.6 14.294-88.32 42.774-116.906 28.8-29.334 68.266-43.627 118.506-43.627z m-12.16 397.547c14.294 0 26.454 4.053 36.054 13.546 9.493 8.854 14.293 20.374 14.293 34.667 0 14.293-5.44 25.813-14.933 35.307-9.494 8.853-21.76 13.546-35.307 13.546s-25.813-4.8-35.307-14.293c-9.493-9.493-14.293-21.12-14.293-34.667 0-14.293 4.8-25.813 14.293-34.666 9.28-9.387 21.547-13.44 35.2-13.44z" p-id="68695"></path></svg>