<?xml version="1.0" standalone="no"?><!DOCTYPE svg PUBLIC "-//W3C//DTD SVG 1.1//EN" "http://www.w3.org/Graphics/SVG/1.1/DTD/svg11.dtd"><svg t="1612322284831" class="icon" viewBox="0 0 1024 1024" version="1.1" xmlns="http://www.w3.org/2000/svg" p-id="1440" xmlns:xlink="http://www.w3.org/1999/xlink" width="200" height="200"><defs><style type="text/css"></style></defs><path d="M963.23 208.25H61a53 53 0 0 0-52.9 52.94v500.86A53 53 0 0 0 61 815h902.23a53 53 0 0 0 52.95-52.95V261.19a53 53 0 0 0-52.95-52.94zM366 376.61A10.59 10.59 0 0 1 376.6 366h84.71a10.59 10.59 0 0 1 10.59 10.59v63.53a10.59 10.59 0 0 1-10.59 10.59H376.6a10.59 10.59 0 0 1-10.6-10.56z m-80.47 271.08a10.59 10.59 0 0 1-10.59 10.59h-84.71a10.59 10.59 0 0 1-10.59-10.59v-63.53a10.59 10.59 0 0 1 10.59-10.59h84.71a10.59 10.59 0 0 1 10.59 10.59z m0-207.55a10.59 10.59 0 0 1-10.59 10.59h-84.71a10.59 10.59 0 0 1-10.59-10.59v-63.53A10.59 10.59 0 0 1 190.23 366h84.71a10.59 10.59 0 0 1 10.59 10.59z m372.74 207.55a10.59 10.59 0 0 1-10.59 10.59H376.6a10.59 10.59 0 0 1-10.6-10.59v-63.53a10.59 10.59 0 0 1 10.59-10.59h271.09a10.59 10.59 0 0 1 10.59 10.59z m1.06-207.55a10.59 10.59 0 0 1-10.59 10.59H564a10.59 10.59 0 0 1-10.59-10.59v-63.53A10.59 10.59 0 0 1 564 366h84.71a10.59 10.59 0 0 1 10.59 10.59z m186.36 207.55a10.59 10.59 0 0 1-10.59 10.59h-84.71a10.59 10.59 0 0 1-10.59-10.59v-63.53a10.59 10.59 0 0 1 10.59-10.59h84.71a10.59 10.59 0 0 1 10.59 10.59z m0-207.55a10.59 10.59 0 0 1-10.59 10.59h-84.71a10.59 10.59 0 0 1-10.59-10.59v-63.53A10.59 10.59 0 0 1 750.39 366h84.71a10.59 10.59 0 0 1 10.59 10.59z" p-id="1441"></path></svg>
