<?xml version="1.0" standalone="no"?><!DOCTYPE svg PUBLIC "-//W3C//DTD SVG 1.1//EN" "http://www.w3.org/Graphics/SVG/1.1/DTD/svg11.dtd"><svg t="1628219494752" class="icon" viewBox="0 0 1024 1024" version="1.1" xmlns="http://www.w3.org/2000/svg" p-id="3171" xmlns:xlink="http://www.w3.org/1999/xlink" width="200" height="200"><defs><style type="text/css"></style></defs><path d="M776.926884 815.642045c25.5968 0 38.395201-19.1976 44.794401-25.596801 6.3992-6.3992 12.7984-25.5968 0-51.1936l-38.395201-70.391202c-6.3992-6.3992-6.3992-19.1976-6.3992-25.5968v-262.367204c6.3992-147.181602-115.185602-268.766404-262.367204-268.766404s-268.766404 121.584802-268.766404 268.766404v262.367204c0 12.7984 0 19.1976-6.3992 25.5968l-38.395201 76.790402c-12.7984 25.5968 0 44.794401 0 51.1936 6.3992 6.3992 19.1976 19.1976 44.794401 19.197601h531.133608m0 63.992001h-531.133608c-83.189601 0-140.782402-89.588801-102.387202-166.379203l38.395201-70.391201v-262.367204c0-185.576803 147.181602-332.758405 332.758405-332.758405s332.758405 147.181602 332.758405 332.758405v262.367204l38.395201 70.391201c31.996 76.790401-19.1976 166.379203-108.786402 166.379203zM514.55968 1023.872016c-57.592801 0-115.185602-38.395201-134.383202-95.988002h268.766404c-25.5968 57.592801-76.790401 95.988001-134.383202 95.988002z" p-id="3172"></path><path d="M578.551681 63.992001h-127.984002c0-38.395201 25.5968-63.992001 63.992001-63.992001s63.992001 25.5968 63.992001 63.992001z" p-id="3173"></path><path d="M386.575678 415.948006c-19.1976 0-31.996-12.7984-31.996-31.996 0-38.395201 19.1976-83.189601 44.7944-115.185602 19.1976-31.996 63.992001-44.794401 115.185602-44.794401 19.1976 0 31.996 12.7984 31.996001 31.996001s-12.7984 31.996-31.996001 31.996-51.193601 6.3992-63.992001 25.596801c-19.1976 19.1976-31.996 44.794401-31.996 70.391201 0 19.1976-12.7984 31.996-31.996001 31.996z" p-id="3174"></path></svg>
