<?xml version="1.0" standalone="no"?><!DOCTYPE svg PUBLIC "-//W3C//DTD SVG 1.1//EN" "http://www.w3.org/Graphics/SVG/1.1/DTD/svg11.dtd"><svg t="1623835230417" class="icon" viewBox="0 0 1189 1024" version="1.1" xmlns="http://www.w3.org/2000/svg" p-id="48359" xmlns:xlink="http://www.w3.org/1999/xlink" width="232.2265625" height="200"><defs><style type="text/css"></style></defs><path d="M988.304 90.125h-816.531c-45.077 0.050-81.605 36.581-81.65 81.654v544.348c0.050 45.073 36.576 81.599 81.644 81.65h381.051v81.659h-136.087c-15.031 0.003-27.216 12.188-27.216 27.219s12.185 27.218 27.215 27.219h326.617c15.031-0.003 27.216-12.188 27.216-27.219s-12.185-27.217-27.215-27.219h-136.087v-81.65h381.045c45.077-0.050 81.605-36.581 81.65-81.654v-544.348c-0.045-45.078-36.572-81.609-81.644-81.659zM171.775 144.565h816.531c15.028 0.011 27.207 12.191 27.219 27.218v462.697h-870.96v-462.695c0.011-15.025 12.186-27.203 27.207-27.219zM988.304 743.348h-816.531c-15.028-0.011-27.207-12.191-27.219-27.218v-27.211h870.96v27.219c-0.017 15.022-12.188 27.193-27.209 27.21z" p-id="48360"></path></svg>