<?xml version="1.0" standalone="no"?><!DOCTYPE svg PUBLIC "-//W3C//DTD SVG 1.1//EN" "http://www.w3.org/Graphics/SVG/1.1/DTD/svg11.dtd"><svg t="1623834886355" class="icon" viewBox="0 0 1024 1024" version="1.1" xmlns="http://www.w3.org/2000/svg" p-id="41175" xmlns:xlink="http://www.w3.org/1999/xlink" width="200" height="200"><defs><style type="text/css"></style></defs><path d="M227.555556 142.222222a85.333333 85.333333 0 0 0-85.333334 85.333334v568.888888a85.333333 85.333333 0 0 0 85.333334 85.333334h568.888888a85.333333 85.333333 0 0 0 85.333334-85.333334V227.555556a85.333333 85.333333 0 0 0-85.333334-85.333334H227.555556z m0-56.888889h568.888888a142.222222 142.222222 0 0 1 142.222223 142.222223v568.888888a142.222222 142.222222 0 0 1-142.222223 142.222223H227.555556a142.222222 142.222222 0 0 1-142.222223-142.222223V227.555556a142.222222 142.222222 0 0 1 142.222223-142.222223z" p-id="41176"></path><path d="M284.444444 142.222222v256h455.111112V142.222222h56.888888v264.760889c0 26.567111-25.457778 48.128-56.888888 48.128H284.444444c-31.431111 0-56.888889-21.560889-56.888888-48.128V142.222222h56.888888z" p-id="41177"></path><path d="M625.777778 199.111111m28.444444 0l0 0q28.444444 0 28.444445 28.444445l0 85.333333q0 28.444444-28.444445 28.444444l0 0q-28.444444 0-28.444444-28.444444l0-85.333333q0-28.444444 28.444444-28.444445Z" p-id="41178"></path></svg>
