<?xml version="1.0" standalone="no"?><!DOCTYPE svg PUBLIC "-//W3C//DTD SVG 1.1//EN" "http://www.w3.org/Graphics/SVG/1.1/DTD/svg11.dtd"><svg t="1623889994556" class="icon" viewBox="0 0 1024 1024" version="1.1" xmlns="http://www.w3.org/2000/svg" p-id="65051" xmlns:xlink="http://www.w3.org/1999/xlink" width="200" height="200"><defs><style type="text/css"></style></defs><path d="M712.533333 270.933333H113.066667C74.666667 270.933333 42.666667 300.8 42.666667 341.333333v524.8c0 38.4 32 70.4 70.4 70.4h599.466666c38.4 0 70.4-32 70.4-70.4V341.333333c0-38.4-29.866667-70.4-70.4-70.4zM113.066667 317.866667h599.466666c12.8 0 23.466667 10.666667 23.466667 23.466666v209.066667c-29.866667 108.8-91.733333 160-192 160-83.2 0-119.466667-44.8-155.733333-89.6-32-40.533333-68.266667-81.066667-130.133334-91.733333-64-10.666667-121.6 2.133333-164.266666 40.533333l-2.133334 2.133333V341.333333c-2.133333-12.8 6.4-23.466667 21.333334-23.466666z m599.466666 571.733333H113.066667c-12.8 0-23.466667-10.666667-23.466667-23.466667v-209.066666c2.133333-14.933333 12.8-36.266667 32-53.333334 19.2-14.933333 59.733333-40.533333 125.866667-29.866666 44.8 8.533333 70.4 38.4 102.4 74.666666 40.533333 49.066667 87.466667 106.666667 194.133333 106.666667 85.333333 0 149.333333-32 192-93.866667v202.666667c0 14.933333-10.666667 25.6-23.466667 25.6zM512 475.733333c0 12.8 6.4 25.6 19.2 32 10.666667 6.4 25.6 6.4 38.4 0 10.666667-6.4 19.2-19.2 19.2-32s-6.4-25.6-19.2-32c-10.666667-6.4-25.6-6.4-38.4 0-12.8 6.4-19.2 17.066667-19.2 32zM759.466667 179.2H292.266667c-12.8 0-23.466667 10.666667-23.466667 23.466667 0 12.8 10.666667 23.466667 23.466667 23.466666h467.2c46.933333 0 85.333333 38.4 85.333333 85.333334v484.266666c0 12.8 10.666667 23.466667 23.466667 23.466667 12.8 0 23.466667-10.666667 23.466666-23.466667V311.466667c0-72.533333-59.733333-132.266667-132.266666-132.266667z m89.6-91.733333H381.866667c-12.8 0-23.466667 10.666667-23.466667 23.466666 0 12.8 10.666667 23.466667 23.466667 23.466667h467.2c46.933333 0 85.333333 38.4 85.333333 85.333333V704c0 12.8 10.666667 23.466667 23.466667 23.466667 12.8 0 23.466667-10.666667 23.466666-23.466667V221.866667c0-74.666667-59.733333-134.4-132.266666-134.4z m0 0" p-id="65052"></path></svg>