<?xml version="1.0" standalone="no"?><!DOCTYPE svg PUBLIC "-//W3C//DTD SVG 1.1//EN" "http://www.w3.org/Graphics/SVG/1.1/DTD/svg11.dtd"><svg t="1623835001504" class="icon" viewBox="0 0 1024 1024" version="1.1" xmlns="http://www.w3.org/2000/svg" p-id="43546" xmlns:xlink="http://www.w3.org/1999/xlink" width="200" height="200"><defs><style type="text/css"></style></defs><path d="M398.819328 139.178956c-145.114685 23.447864-250.376678 147.084583-250.376678 294.035525 0 12.711485 0.987553 26.039105 3.332339 41.949288 1.728651 12.465031 12.466766 21.472759 24.680136 21.47276 1.109044 0 2.341315-0.119756 3.452095-0.246454 13.574075-1.975105 23.076447-14.563363 21.226305-28.12876-1.848407-13.57581-2.837695-24.6784-2.837695-35.046834 0-122.399241 87.735973-225.304298 208.543674-244.800217 13.574075-2.223295 22.829993-14.931308 20.606699-28.503647-2.218088-13.693831-15.177763-23.074712-28.626875-20.731661z m615.639214 833.857085L732.117443 690.726183c66.393383-76.008569 102.918942-171.882739 102.918943-273.677017C835.036386 187.057031 647.961999 0 417.94383 0 187.932603 0 0.856481 187.057031 0.856481 417.049166 0.856481 647.046508 187.932603 834.103539 417.94383 834.103539c100.943837 0 196.210549-35.905953 271.852908-101.179878l282.335892 282.309858A29.805342 29.805342 0 0 0 993.232236 1024c7.652231 0 15.304461-2.964393 21.101343-8.766481 11.725668-11.597234 11.725668-30.473546 0.124963-42.197478zM671.406392 670.489166c-67.741939 67.741939-157.702942 105.005125-253.462562 105.005126-197.685803 0-358.351403-160.776678-358.351404-358.320163 0-197.546956 160.792298-358.318427 358.351404-358.318427 197.564312 0 358.351403 160.771471 358.351403 358.318427 0.126698 95.62598-37.264922 185.578305-104.888841 253.315037z" p-id="43547"></path></svg>