<?xml version="1.0" standalone="no"?><!DOCTYPE svg PUBLIC "-//W3C//DTD SVG 1.1//EN" "http://www.w3.org/Graphics/SVG/1.1/DTD/svg11.dtd"><svg t="1623835321936" class="icon" viewBox="0 0 1024 1024" version="1.1" xmlns="http://www.w3.org/2000/svg" p-id="49915" xmlns:xlink="http://www.w3.org/1999/xlink" width="200" height="200"><defs><style type="text/css"></style></defs><path d="M516 719.2c-113.6 0-206-92.4-206-206s92.4-206 206-206 206 92.4 206 206-92.4 206-206 206z m0-352c-80.5 0-146 65.5-146 146s65.5 146 146 146 146-65.5 146-146-65.5-146-146-146z" p-id="49916"></path><path d="M630.2 916.3c-14 0-27.7-4.7-38.9-13.8-24.1-19.6-53.4-30-84.6-30-29.3 0-57.1 9.3-80.5 26.8-17.2 12.9-39.4 16-59.4 8.4-49.2-18.6-94-46-133.2-81.3-16-14.4-23.4-36.5-19.5-57.7 1.5-8.1 2.3-16.4 2.3-24.8 0-53.7-31.9-102.2-81.3-123.4-19.7-8.5-33.8-27-36.8-48.4-2.7-19.4-4.1-39.2-4.1-58.9 0-19.7 1.4-39.5 4.1-58.9 3-21.4 17.1-40 36.8-48.4 49.4-21.2 81.3-69.7 81.3-123.4 0-8.3-0.8-16.7-2.3-24.8-4-21.2 3.5-43.3 19.5-57.7 39.2-35.4 84-62.7 133.2-81.3 20.1-7.6 42.3-4.4 59.5 8.4 23.4 17.5 51.2 26.8 80.5 26.8 31.2 0 60.4-10.4 84.6-30 16.5-13.4 38.6-17.4 59.1-10.5 54.6 18.3 104.1 47.2 147.1 85.9 16.2 14.5 23.7 36.7 19.6 58-1.6 8.2-2.4 16.7-2.4 25.2 0 54 32.1 102.5 81.8 123.6 19.9 8.4 34 27.1 37 48.6 2.7 19.3 4 39 4 58.5 0 19.6-1.4 39.3-4 58.6-3 21.5-17.2 40.1-37 48.6-49.7 21.1-81.8 69.6-81.8 123.6 0 8.4 0.8 16.9 2.4 25.1 4 21.3-3.5 43.5-19.6 58-43.1 38.6-92.6 67.5-147.2 85.9-6.6 2.2-13.4 3.3-20.2 3.3z m-123.4-93.7c42.2 0 83.4 14.6 116.1 41.2 3.1 2.5 7.6 3.3 11.6 1.9 48.1-16.2 91.7-41.6 129.7-75.7 3.2-2.9 4.7-7.3 3.9-11.5-2.1-11.3-3.2-22.9-3.2-34.5 0-74.1 44-140.6 112.2-169.6 3.8-1.6 6.5-5.2 7.1-9.4 2.4-17 3.6-34.4 3.6-51.7 0-17.3-1.2-34.6-3.6-51.6-0.6-4.2-3.3-7.8-7.1-9.4-68.2-29-112.2-95.6-112.2-169.6 0-11.6 1.1-23.2 3.2-34.5 0.8-4.2-0.7-8.6-3.9-11.5-38-34.1-81.6-59.5-129.6-75.7-4.1-1.4-8.5-0.6-11.6 1.9-32.7 26.6-73.9 41.2-116.1 41.2-40.2 0-78.4-12.7-110.5-36.8-3.4-2.5-7.8-3.2-11.8-1.7-43.3 16.4-82.8 40.5-117.4 71.7-3.1 2.8-4.6 7.2-3.8 11.4 2.1 11.1 3.1 22.6 3.1 34 0 73.7-43.8 140.2-111.5 169.3-3.7 1.6-6.4 5.2-7 9.4-2.4 17.1-3.6 34.6-3.6 51.9 0 17.4 1.2 34.9 3.6 52 0.6 4.2 3.3 7.8 7 9.4 67.8 29.1 111.5 95.6 111.5 169.3 0 11.4-1.1 22.8-3.1 33.9-0.8 4.2 0.7 8.6 3.8 11.4 34.6 31.2 74.1 55.3 117.4 71.7 4 1.5 8.4 0.9 11.8-1.7 32-24 70.2-36.7 110.4-36.7z" p-id="49917"></path></svg>